<svg xmlns="http://www.w3.org/2000/svg" width="17.821" height="23.832" viewBox="0 0 17.821 23.832">
  <g id="cuidados" transform="translate(0.75 0.75)">
    <path id="Path_287" data-name="Path 287" d="M24.252,17.376V29.733A1.272,1.272,0,0,1,22.981,31H11.559a1.268,1.268,0,0,1-1.265-1.27V17.376a4.2,4.2,0,0,1,4.2-4.206h5.55A4.207,4.207,0,0,1,24.252,17.376Z" transform="translate(-10.294 -8.671)" fill="none" stroke="#a190b2" stroke-linecap="round" stroke-linejoin="round" stroke-width="1.5"/>
    <path id="Path_288" data-name="Path 288" d="M16.331,3.5H26.566l2.966,2.966" transform="translate(-13.522 -3.5)" fill="none" stroke="#a190b2" stroke-linecap="round" stroke-linejoin="round" stroke-width="1.5"/>
    <rect id="Rectangle_169" data-name="Rectangle 169" width="4.321" height="4.499" transform="translate(4.818)" stroke-width="1.5" stroke="#a190b2" stroke-linecap="round" stroke-linejoin="round" fill="none"/>
    <path id="Path_289" data-name="Path 289" d="M24.735,27.1v8.211h-7.42V27.1a4.545,4.545,0,0,0,3.012.964C21.781,27.811,24.735,27.1,24.735,27.1Z" transform="translate(-14.048 -16.121)" fill="none" stroke="#a190b2" stroke-linecap="round" stroke-linejoin="round" stroke-width="1.5"/>
    <path id="Path_290" data-name="Path 290" d="M23.054,20.616c.531-.093,1.261-.247,1.975-.4V13.17H22.414v7.469A2.522,2.522,0,0,0,23.054,20.616Z" transform="translate(-16.775 -8.671)" fill="none" stroke="#a190b2" stroke-linecap="round" stroke-linejoin="round" stroke-width="1.5"/>
  </g>
</svg>
