<svg xmlns="http://www.w3.org/2000/svg" width="7.36" height="15.842" viewBox="0 0 7.36 15.842">
  <path id="Path_234" data-name="Path 234" d="M576.713,282.635v7.659a.2.2,0,0,0,.2.2h2.844a.2.2,0,0,0,.2-.2V282.51h2.062a.2.2,0,0,0,.2-.183l.2-2.345a.2.2,0,0,0-.2-.216h-2.26V278.1a.706.706,0,0,1,.706-.706h1.589a.2.2,0,0,0,.2-.2v-2.345a.2.2,0,0,0-.2-.2h-2.685a2.853,2.853,0,0,0-2.853,2.853v2.261h-1.422a.2.2,0,0,0-.2.2v2.345a.2.2,0,0,0,.2.2h1.422Z" transform="translate(-575.091 -274.652)" fill="#313131" fill-rule="evenodd"/>
</svg>
