<svg id="Group_215" data-name="Group 215" xmlns="http://www.w3.org/2000/svg" width="16.524" height="16.524" viewBox="0 0 16.524 16.524">
  <path id="Path_235" data-name="Path 235" d="M699.547,274h-6.569A4.977,4.977,0,0,0,688,278.977v6.57a4.977,4.977,0,0,0,4.978,4.977h6.569a4.977,4.977,0,0,0,4.978-4.977v-6.57A4.977,4.977,0,0,0,699.547,274Zm3.419,11.547a3.419,3.419,0,0,1-3.419,3.418h-6.569a3.419,3.419,0,0,1-3.419-3.418v-6.57a3.419,3.419,0,0,1,3.419-3.418h6.569a3.418,3.418,0,0,1,3.419,3.418Z" transform="translate(-688 -274)" fill="#313131"/>
  <path id="Path_236" data-name="Path 236" d="M726.3,283.758a.971.971,0,1,0,.971.971A.971.971,0,0,0,726.3,283.758Z" transform="translate(-713.688 -280.716)" fill="#313131"/>
  <path id="Path_237" data-name="Path 237" d="M705.582,287.753a4.081,4.081,0,1,0,4.081,4.081A4.086,4.086,0,0,0,705.582,287.753Zm0,6.695a2.614,2.614,0,1,1,2.614-2.614A2.617,2.617,0,0,1,705.582,294.448Z" transform="translate(-697.292 -283.465)" fill="#313131"/>
</svg>
