<svg xmlns="http://www.w3.org/2000/svg" width="16.515" height="23.843" viewBox="0 0 16.515 23.843">
  <g id="maquillaje" transform="translate(0.25 0.261)">
    <path id="Path_283" data-name="Path 283" d="M19.418,15.677v-1.64a1.257,1.257,0,0,0-.863-1.209V5.4a.515.515,0,0,0-.216-.388.392.392,0,0,0-.432,0L14.929,6.482a1.3,1.3,0,0,0-.734,1.165v5.137a1.257,1.257,0,0,0-.863,1.209v1.64a1.237,1.237,0,0,0-.432.95v10.36a1.272,1.272,0,0,0,1.295,1.295h4.317a1.272,1.272,0,0,0,1.295-1.295V16.626A1.081,1.081,0,0,0,19.418,15.677ZM15.1,7.648a.415.415,0,0,1,.259-.388l2.331-1.165v6.648H15.1Zm-.863,6.389a.408.408,0,0,1,.432-.432h3.453a.408.408,0,0,1,.432.432v1.295H14.238Zm4.748,12.95a.408.408,0,0,1-.432.432H14.238a.408.408,0,0,1-.432-.432V16.626a.408.408,0,0,1,.432-.432h4.317a.408.408,0,0,1,.432.432Z" transform="translate(-12.9 -4.95)" fill="#a191b2" stroke="#a190b2" stroke-width="0.5"/>
    <path id="Path_284" data-name="Path 284" d="M40.907,7.633h0A2.443,2.443,0,0,0,38.705,5H36.2A2.443,2.443,0,0,0,34,7.633a8.825,8.825,0,0,0,.863,3.971l.432,4.23v11.18A1.272,1.272,0,0,0,36.59,28.31h1.727a1.272,1.272,0,0,0,1.295-1.295V15.835l.432-4.23A8.825,8.825,0,0,0,40.907,7.633ZM35.77,11.907h3.367l-.345,3.453H36.115ZM36.2,5.863h2.5A1.576,1.576,0,0,1,40.043,7.59v.043a8.428,8.428,0,0,1-.691,3.41h-3.8a8.488,8.488,0,0,1-.691-3.453A1.576,1.576,0,0,1,36.2,5.863Zm2.547,21.151a.408.408,0,0,1-.432.432H36.59a.408.408,0,0,1-.432-.432V16.223h2.59Z" transform="translate(-24.892 -4.978)" fill="#a191b2" stroke="#a190b2" stroke-width="0.5"/>
    <path id="Path_285" data-name="Path 285" d="M17.432,33a.408.408,0,0,0-.432.432v4.317a.432.432,0,0,0,.863,0V33.432A.408.408,0,0,0,17.432,33Z" transform="translate(-15.23 -20.892)" fill="#a191b2" stroke="#a190b2" stroke-width="0.5"/>
    <path id="Path_286" data-name="Path 286" d="M17.432,46a.408.408,0,0,0-.432.432v.863a.432.432,0,0,0,.863,0v-.863A.408.408,0,0,0,17.432,46Z" transform="translate(-15.23 -28.28)" fill="#a191b2" stroke="#a190b2" stroke-width="0.5"/>
  </g>
</svg>
