<svg id="peluqueria" xmlns="http://www.w3.org/2000/svg" width="19.332" height="23.332" viewBox="0 0 19.332 23.332">
  <path id="Path_282" data-name="Path 282" d="M5.992,19.974l-.4.79a1.831,1.831,0,0,1-3.275-1.638l.389-.778a1.831,1.831,0,0,1,3.281,1.625Zm1.267-2.535a3.385,3.385,0,0,0-5.939.215l-.389.778A3.386,3.386,0,0,0,6.988,21.46l.389-.778.009-.016L9.378,16.68l-1.392-.7Zm5.23-6.98-1.392-.7L15.978,0h.481a2.336,2.336,0,0,1,2.333,2.333c0,.2-.019,4.888-1.637,8.126l-1.126,2.251A2.32,2.32,0,0,1,13.942,14H12.57V12.443h1.372a.774.774,0,0,0,.7-.429l1.125-2.251c1.454-2.906,1.474-7.384,1.474-7.43a.776.776,0,0,0-.359-.654Zm5.764,10.065a1.831,1.831,0,0,1-3.375.24l-.389-.778a1.831,1.831,0,1,1,3.275-1.638l.389.778A1.824,1.824,0,0,1,18.252,20.524Zm-11.72-8.08a.774.774,0,0,1-.7-.429L4.712,9.763C3.258,6.857,3.238,2.378,3.238,2.333A.776.776,0,0,1,3.6,1.679L8.979,12.443H6.532ZM19.544,18.43l-.389-.778a3.383,3.383,0,0,0-5.939-.214L4.5,0H4.015A2.336,2.336,0,0,0,1.682,2.333c0,.2.019,4.888,1.637,8.126l1.126,2.251A2.32,2.32,0,0,0,6.532,14H9.757L13.1,20.681l.389.778a3.386,3.386,0,0,0,6.058-3.028Z" transform="translate(-0.571)" fill="#a191b2" fill-rule="evenodd"/>
</svg>
