<svg id="Group_213" data-name="Group 213" xmlns="http://www.w3.org/2000/svg" width="15.402" height="12.687" viewBox="0 0 15.402 12.687">
  <path id="Path_226" data-name="Path 226" d="M450.943,281.232a6.334,6.334,0,0,1-1.556.444c.251-.042.62-.5.768-.679a2.864,2.864,0,0,0,.518-.943c.014-.027.024-.061,0-.081a.088.088,0,0,0-.082.007,7.956,7.956,0,0,1-1.848.707.124.124,0,0,1-.128-.034,1.479,1.479,0,0,0-.162-.165,3.266,3.266,0,0,0-.9-.548,3.115,3.115,0,0,0-1.373-.221,3.28,3.28,0,0,0-1.3.368,3.352,3.352,0,0,0-1.051.858,3.23,3.23,0,0,0-.628,1.257,3.409,3.409,0,0,0-.033,1.327c.01.074,0,.084-.064.074a9.87,9.87,0,0,1-6.35-3.233c-.074-.085-.114-.085-.175.007a3.22,3.22,0,0,0,.549,3.8c.124.118.252.236.39.344a3.237,3.237,0,0,1-1.225-.344c-.074-.047-.111-.02-.118.064a1.946,1.946,0,0,0,.02.364,3.257,3.257,0,0,0,2.007,2.6,1.891,1.891,0,0,0,.407.124,3.629,3.629,0,0,1-1.2.037c-.088-.017-.121.027-.088.111a3.38,3.38,0,0,0,2.525,2.115c.114.02.229.02.344.047-.007.01-.014.01-.02.02a4,4,0,0,1-1.724.914,6.179,6.179,0,0,1-2.619.335c-.141-.021-.17-.019-.209,0s0,.057.04.094c.179.118.36.222.546.323a8.657,8.657,0,0,0,1.751.7,9.325,9.325,0,0,0,9.053-2.117,9.5,9.5,0,0,0,2.505-6.931c0-.1.118-.155.188-.207a6.1,6.1,0,0,0,1.226-1.281.372.372,0,0,0,.076-.245v-.013C451,281.191,451.006,281.2,450.943,281.232Z" transform="translate(-435.599 -279.711)" fill="#313131"/>
  <path id="Path_227" data-name="Path 227" d="M450.27,320.227Z" transform="translate(-445.695 -307.595)" fill="#313131" fill-rule="evenodd"/>
  <path id="Path_228" data-name="Path 228" d="M450.01,320.227c-.02,0-.254,0,0,0Z" transform="translate(-445.436 -307.595)" fill="#313131" fill-rule="evenodd"/>
  <path id="Path_229" data-name="Path 229" d="M451.933,320.245c0-.026.273,0,0,0C451.933,320.231,451.967,320.245,451.933,320.245Z" transform="translate(-446.84 -307.599)" fill="#313131" fill-rule="evenodd"/>
  <path id="Path_230" data-name="Path 230" d="M469.266,279.771a.055.055,0,0,1-.064,0Z" transform="translate(-458.725 -279.752)" fill="#313131" fill-rule="evenodd"/>
</svg>
